<?xml version="1.0" encoding="UTF-8"?>
<!DOCTYPE svg PUBLIC "-//W3C//DTD SVG 1.1//EN" "http://www.w3.org/Graphics/SVG/1.1/DTD/svg11.dtd">
<svg version="1.1" xmlns="http://www.w3.org/2000/svg" xmlns:xlink="http://www.w3.org/1999/xlink" width="512" height="512"  xml:space="preserve" id="logo">
    <!-- Generated by PaintCode - http://www.paintcodeapp.com -->
    <circle id="logo-background" stroke="rgb(0, 0, 0)" stroke-width="5.5" stroke-miterlimit="10" fill="rgb(255, 255, 255)" cx="257" cy="256" r="250" />
    <g id="logo-check">
        <rect id="logo-canvas1rectangle" stroke="none" fill="rgb(255, 255, 255)" x="147.5" y="53.5" width="220" height="405" />
        <path id="logo-canvas1bezier" stroke="none" fill="rgb(0, 0, 0)" d="M 369,52 L 146,52 146,460 369,460 369,52 Z M 365.26,456.38 L 149.74,456.38 149.74,55.62 365.26,55.62 365.26,456.38 Z M 365.26,456.38" />
        <path id="logo-canvas1bezier2" stroke="none" fill="rgb(0, 0, 0)" d="M 166.56,74.33 L 345.95,74.33 345.95,85.2 166.56,85.2 166.56,74.33 Z M 166.56,74.33" />
        <path id="logo-canvas1bezier3" stroke="none" fill="rgb(0, 0, 0)" d="M 347.82,72.52 L 164.69,72.52 164.69,87.01 347.82,87.01 347.82,72.52 Z M 344.08,83.38 L 168.42,83.38 168.42,76.14 344.08,76.14 344.08,83.38 Z M 344.08,83.38" />
        <path id="logo-canvas1bezier4" stroke="none" fill="rgb(0, 0, 0)" d="M 196.46,98.47 L 316.05,98.47 316.05,105.72 196.46,105.72 196.46,98.47 Z M 196.46,98.47" />
        <path id="logo-canvas1bezier5" stroke="none" fill="rgb(0, 0, 0)" d="M 317.92,96.66 L 194.59,96.66 194.59,107.53 317.92,107.53 317.92,96.66 Z M 314.18,103.91 L 198.32,103.91 198.32,100.28 314.18,100.28 314.18,103.91 Z M 314.18,103.91" />
        <path id="logo-canvas1bezier6" stroke="none" fill="rgb(0, 0, 0)" d="M 166.56,152.79 L 286.15,152.79 286.15,160.04 166.56,160.04 166.56,152.79 Z M 166.56,152.79" />
        <path id="logo-canvas1bezier7" stroke="none" fill="rgb(0, 0, 0)" d="M 288.02,150.98 L 164.69,150.98 164.69,161.85 288.02,161.85 288.02,150.98 Z M 284.28,158.22 L 168.42,158.22 168.42,154.6 284.28,154.6 284.28,158.22 Z M 284.28,158.22" />
        <rect id="logo-canvas1rectangle2" stroke="none" fill="rgb(0, 0, 0)" x="309.5" y="152.5" width="37" height="7" />
        <path id="logo-canvas1bezier8" stroke="none" fill="rgb(0, 0, 0)" d="M 347.82,150.98 L 307.96,150.98 307.96,161.85 347.82,161.85 347.82,150.98 Z M 344.08,158.22 L 311.69,158.22 311.69,154.6 344.08,154.6 344.08,158.22 Z M 344.08,158.22" />
        <path id="logo-canvas1bezier9" stroke="none" fill="rgb(0, 0, 0)" d="M 165.92,181.22 L 285.52,181.22 285.52,188.46 165.92,188.46 165.92,181.22 Z M 165.92,181.22" />
        <path id="logo-canvas1bezier10" stroke="none" fill="rgb(0, 0, 0)" d="M 287.39,179.41 L 164.05,179.41 164.05,190.27 287.39,190.27 287.39,179.41 Z M 283.65,186.65 L 167.79,186.65 167.79,183.03 283.65,183.03 283.65,186.65 Z M 283.65,186.65" />
        <rect id="logo-canvas1rectangle3" stroke="none" fill="rgb(0, 0, 0)" x="309" y="181.05" width="36" height="8" />
        <path id="logo-canvas1bezier11" stroke="none" fill="rgb(0, 0, 0)" d="M 347.19,179.41 L 307.32,179.41 307.32,190.27 347.19,190.27 347.19,179.41 Z M 343.45,186.65 L 311.06,186.65 311.06,183.03 343.45,183.03 343.45,186.65 Z M 343.45,186.65" />
        <path id="logo-canvas1bezier12" stroke="none" fill="rgb(0, 0, 0)" d="M 165.43,152.79 L 285.03,152.79 285.03,160.04 165.43,160.04 165.43,152.79 Z M 165.43,152.79" />
        <path id="logo-canvas1bezier13" stroke="none" fill="rgb(0, 0, 0)" d="M 286.9,150.98 L 163.57,150.98 163.57,161.85 286.9,161.85 286.9,150.98 Z M 283.16,158.22 L 167.3,158.22 167.3,154.6 283.16,154.6 283.16,158.22 Z M 283.16,158.22" />
        <rect id="logo-canvas1rectangle4" stroke="none" fill="rgb(0, 0, 0)" x="308.25" y="152.5" width="36" height="7" />
        <path id="logo-canvas1bezier14" stroke="none" fill="rgb(0, 0, 0)" d="M 346.24,150.98 L 306.37,150.98 306.37,161.85 346.24,161.85 346.24,150.98 Z M 342.5,158.22 L 310.11,158.22 310.11,154.6 342.5,154.6 342.5,158.22 Z M 342.5,158.22" />
        <path id="logo-canvas1bezier15" stroke="none" fill="rgb(0, 0, 0)" d="M 165.43,181.22 L 285.03,181.22 285.03,188.46 165.43,188.46 165.43,181.22 Z M 165.43,181.22" />
        <path id="logo-canvas1bezier16" stroke="none" fill="rgb(0, 0, 0)" d="M 286.9,179.41 L 163.57,179.41 163.57,190.27 286.9,190.27 286.9,179.41 Z M 283.16,186.65 L 167.3,186.65 167.3,183.03 283.16,183.03 283.16,186.65 Z M 283.16,186.65" />
        <rect id="logo-canvas1rectangle5" stroke="none" fill="rgb(0, 0, 0)" x="308.25" y="181.05" width="36" height="8" />
        <path id="logo-canvas1bezier17" stroke="none" fill="rgb(0, 0, 0)" d="M 346.24,179.41 L 306.37,179.41 306.37,190.27 346.24,190.27 346.24,179.41 Z M 342.5,186.65 L 310.11,186.65 310.11,183.03 342.5,183.03 342.5,186.65 Z M 342.5,186.65" />
        <path id="logo-canvas1bezier18" stroke="none" fill="rgb(0, 0, 0)" d="M 165.43,208.05 L 285.03,208.05 285.03,215.3 165.43,215.3 165.43,208.05 Z M 165.43,208.05" />
        <path id="logo-canvas1bezier19" stroke="none" fill="rgb(0, 0, 0)" d="M 286.9,206.24 L 163.57,206.24 163.57,217.11 286.9,217.11 286.9,206.24 Z M 283.16,213.49 L 167.3,213.49 167.3,209.86 283.16,209.86 283.16,213.49 Z M 283.16,213.49" />
        <rect id="logo-canvas1rectangle6" stroke="none" fill="rgb(0, 0, 0)" x="308.25" y="208.3" width="36" height="7" />
        <path id="logo-canvas1bezier20" stroke="none" fill="rgb(0, 0, 0)" d="M 346.24,206.24 L 306.37,206.24 306.37,217.11 346.24,217.11 346.24,206.24 Z M 342.5,213.49 L 310.11,213.49 310.11,209.86 342.5,209.86 342.5,213.49 Z M 342.5,213.49" />
        <path id="logo-canvas1bezier21" stroke="none" fill="rgb(0, 0, 0)" d="M 165.43,236.48 L 285.03,236.48 285.03,243.72 165.43,243.72 165.43,236.48 Z M 165.43,236.48" />
        <path id="logo-canvas1bezier22" stroke="none" fill="rgb(0, 0, 0)" d="M 286.9,234.67 L 163.57,234.67 163.57,245.53 286.9,245.53 286.9,234.67 Z M 283.16,241.91 L 167.3,241.91 167.3,238.29 283.16,238.29 283.16,241.91 Z M 283.16,241.91" />
        <rect id="logo-canvas1rectangle7" stroke="none" fill="rgb(0, 0, 0)" x="308.25" y="235.85" width="36" height="8" />
        <path id="logo-canvas1bezier23" stroke="none" fill="rgb(0, 0, 0)" d="M 346.24,234.67 L 306.37,234.67 306.37,245.53 346.24,245.53 346.24,234.67 Z M 342.5,241.91 L 310.11,241.91 310.11,238.29 342.5,238.29 342.5,241.91 Z M 342.5,241.91" />
        <path id="logo-canvas1bezier24" stroke="none" fill="rgb(0, 0, 0)" d="M 165.43,264.92 L 285.03,264.92 285.03,272.16 165.43,272.16 165.43,264.92 Z M 165.43,264.92" />
        <path id="logo-canvas1bezier25" stroke="none" fill="rgb(0, 0, 0)" d="M 286.9,263.11 L 163.57,263.11 163.57,273.97 286.9,273.97 286.9,263.11 Z M 283.16,270.35 L 167.3,270.35 167.3,266.73 283.16,266.73 283.16,270.35 Z M 283.16,270.35" />
        <rect id="logo-canvas1rectangle8" stroke="none" fill="rgb(0, 0, 0)" x="308.25" y="265.4" width="36" height="7" />
        <path id="logo-canvas1bezier26" stroke="none" fill="rgb(0, 0, 0)" d="M 346.24,263.11 L 306.37,263.11 306.37,273.97 346.24,273.97 346.24,263.11 Z M 342.5,270.35 L 310.11,270.35 310.11,266.73 342.5,266.73 342.5,270.35 Z M 342.5,270.35" />
        <path id="logo-canvas1bezier27" stroke="none" fill="rgb(0, 0, 0)" d="M 165.43,293.35 L 285.03,293.35 285.03,300.59 165.43,300.59 165.43,293.35 Z M 165.43,293.35" />
        <path id="logo-canvas1bezier28" stroke="none" fill="rgb(0, 0, 0)" d="M 286.9,291.54 L 163.57,291.54 163.57,302.4 286.9,302.4 286.9,291.54 Z M 283.16,298.78 L 167.3,298.78 167.3,295.16 283.16,295.16 283.16,298.78 Z M 283.16,298.78" />
        <rect id="logo-canvas1rectangle9" stroke="none" fill="rgb(0, 0, 0)" x="308.25" y="292.95" width="36" height="7" />
        <path id="logo-canvas1bezier29" stroke="none" fill="rgb(0, 0, 0)" d="M 346.24,291.54 L 306.37,291.54 306.37,302.4 346.24,302.4 346.24,291.54 Z M 342.5,298.78 L 310.11,298.78 310.11,295.16 342.5,295.16 342.5,298.78 Z M 342.5,298.78" />
        <path id="logo-canvas1bezier30" stroke="none" fill="rgb(0, 0, 0)" d="M 165.43,320.17 L 285.03,320.17 285.03,327.41 165.43,327.41 165.43,320.17 Z M 165.43,320.17" />
        <path id="logo-canvas1bezier31" stroke="none" fill="rgb(0, 0, 0)" d="M 286.9,318.36 L 163.57,318.36 163.57,329.22 286.9,329.22 286.9,318.36 Z M 283.16,325.6 L 167.3,325.6 167.3,321.98 283.16,321.98 283.16,325.6 Z M 283.16,325.6" />
        <rect id="logo-canvas1rectangle10" stroke="none" fill="rgb(0, 0, 0)" x="308.25" y="320.15" width="36" height="8" />
        <path id="logo-canvas1bezier32" stroke="none" fill="rgb(0, 0, 0)" d="M 346.24,318.36 L 306.37,318.36 306.37,329.22 346.24,329.22 346.24,318.36 Z M 342.5,325.6 L 310.11,325.6 310.11,321.98 342.5,321.98 342.5,325.6 Z M 342.5,325.6" />
        <path id="logo-canvas1bezier33" stroke="none" fill="rgb(0, 0, 0)" d="M 165.43,348.61 L 285.03,348.61 285.03,355.85 165.43,355.85 165.43,348.61 Z M 165.43,348.61" />
        <path id="logo-canvas1bezier34" stroke="none" fill="rgb(0, 0, 0)" d="M 286.9,346.8 L 163.57,346.8 163.57,357.66 286.9,357.66 286.9,346.8 Z M 283.16,354.04 L 167.3,354.04 167.3,350.42 283.16,350.42 283.16,354.04 Z M 283.16,354.04" />
        <rect id="logo-canvas1rectangle11" stroke="none" fill="rgb(0, 0, 0)" x="308.25" y="348.7" width="36" height="7" />
        <path id="logo-canvas1bezier35" stroke="none" fill="rgb(0, 0, 0)" d="M 346.24,346.8 L 306.37,346.8 306.37,357.66 346.24,357.66 346.24,346.8 Z M 342.5,354.04 L 310.11,354.04 310.11,350.42 342.5,350.42 342.5,354.04 Z M 342.5,354.04" />
        <rect id="logo-canvas1rectangle12" stroke="none" fill="rgb(0, 0, 0)" x="308.25" y="376.15" width="36" height="8" />
        <path id="logo-canvas1bezier36" stroke="none" fill="rgb(0, 0, 0)" d="M 346.24,375.09 L 306.37,375.09 306.37,385.96 346.24,385.96 346.24,375.09 Z M 342.5,382.34 L 310.11,382.34 310.11,378.71 342.5,378.71 342.5,382.34 Z M 342.5,382.34" />
        <rect id="logo-canvas1rectangle13" stroke="none" fill="rgb(0, 0, 0)" x="308.25" y="404.4" width="36" height="6" />
        <path id="logo-canvas1bezier37" stroke="none" fill="rgb(0, 0, 0)" d="M 346.24,401.93 L 306.37,401.93 306.37,412.79 346.24,412.79 346.24,401.93 Z M 342.5,409.17 L 310.11,409.17 310.11,405.55 342.5,405.55 342.5,409.17 Z M 342.5,409.17" />
        <rect id="logo-canvas1rectangle14" stroke="none" fill="rgb(0, 0, 0)" x="308.25" y="431.95" width="36" height="7" />
        <path id="logo-canvas1bezier38" stroke="none" fill="rgb(0, 0, 0)" d="M 346.24,430.35 L 306.37,430.35 306.37,441.22 346.24,441.22 346.24,430.35 Z M 342.5,437.6 L 310.11,437.6 310.11,433.97 342.5,433.97 342.5,437.6 Z M 342.5,437.6" />
    </g>
</svg>
